<svg xmlns="http://www.w3.org/2000/svg" xmlns:xlink="http://www.w3.org/1999/xlink" width="13" height="13" viewBox="0 0 13 13"><defs><linearGradient id="linear-gradient" x1=".767" x2=".245" y1=".93" y2=".067" gradientUnits="objectBoundingBox"><stop offset="0"/><stop offset="1" stop-color="#7c7c7c"/></linearGradient></defs><g id="Group_3641" data-name="Group 3641" transform="translate(-112 -478)"><circle id="Ellipse_328" cx="6.5" cy="6.5" r="6.5" fill="url(#linear-gradient)" data-name="Ellipse 328" transform="translate(112 478)"/><g id="Group_3626" data-name="Group 3626" transform="translate(115.661 480.011)"><g id="Group_3625" data-name="Group 3625" transform="translate(0 0)"><path id="Path_3814" fill="#fff" d="M11,6.451,13.833,2l2.833,4.451L13.833,8.07Z" data-name="Path 3814" transform="translate(-10.956 -2)"/><path id="Path_3815" fill="#bebebe" d="M25,2l2.833,4.451L25,8.07Z" data-name="Path 3815" transform="translate(-22.124 -2)"/><path id="Path_3816" fill="#fff" d="M11,27l2.833,1.619L16.665,27l-2.833,3.844Z" data-name="Path 3816" transform="translate(-10.956 -21.942)"/><path id="Path_3817" fill="#bebebe" d="M25,21.44l2.833-1.619L25,23.665ZM25,18l2.833,1.214L25,20.833Z" data-name="Path 3817" transform="translate(-22.124 -14.763)"/><path id="Path_3818" fill="#9a9a9a" d="M25,18l2.833,1.214L25,20.833Z" data-name="Path 3818" transform="translate(-22.124 -14.763)"/><path id="Path_3819" fill="#bebebe" d="M-6694.34,14436.852l-2.876-1.631,2.876-1.2Z" data-name="Path 3819" transform="translate(6697.216 -14430.782)"/></g></g></g></svg>